FFmpeg version SVN-r25716, Copyright (c) 2000-2010 the FFmpeg developers  built on Nov 10 2010 12:23:18 with gcc 4.1.2 20080704 (Red Hat 4.1.2-48)  configuration: --enable-libmp3lame --enable-shared --disable-mmx --arch=x86_64  libavutil     50.33. 0 / 50.33. 0  libavcore      0.12. 1 /  0.12. 1  libavcodec    52.94. 4 / 52.94. 4  libavformat   52.84. 0 / 52.84. 0  libavdevice   52. 2. 2 / 52. 2. 2  libavfilter    1.59. 0 /  1.59. 0  libswscale     0.12. 0 /  0.12. 0Input #0, avi, from '/RAID10/data/converted_video_files/47655.avi':  Duration: 00:00:10.35, start: 0.000000, bitrate: 187952 kb/s    Stream #0.0: Video: msvideo1, rgb555le, 1024x1024, 20 tbr, 20 tbn, 20 tbc[buffer @ 0x9937510] w:1024 h:1024 pixfmt:rgb555le[ffsink @ 0x9954de0] auto-inserting filter 'auto-inserted scaler 0' between the filter 'src' and the filter 'out'[scale @ 0x9955100] w:1024 h:1024 fmt:rgb555le -> w:1024 h:1024 fmt:yuv420p flags:0x4Output #0, flv, to '/RAID10/data/converted_video_files/47655.flv':  Metadata:    encoder         : Lavf52.84.0    Stream #0.0: Video: flv, yuv420p, 1024x1024, q=2-31, 600 kb/s, 1k tbn, 24 tbcStream mapping:  Stream #0.0 -> #0.0Press [q] to stop encodingframe=    7 fps=  0 q=10.0 size=     944kB time=0.33 bitrate=23152.1kbits/s    frame=   13 fps= 11 q=11.5 size=    1188kB time=0.62 bitrate=15569.4kbits/s    frame=   23 fps= 14 q=24.8 size=    1281kB time=1.12 bitrate=9333.7kbits/s    frame=   33 fps= 15 q=31.0 size=    1305kB time=1.62 bitrate=6578.1kbits/s    frame=   44 fps= 16 q=31.0 size=    1354kB time=2.21 bitrate=5024.8kbits/s    frame=   52 fps= 16 q=31.0 size=    1398kB time=2.58 bitrate=4433.1kbits/s    frame=   62 fps= 16 q=31.0 size=    1450kB time=3.08 bitrate=3853.0kbits/s    frame=   71 fps= 16 q=24.8 size=    1496kB time=3.54 bitrate=3459.9kbits/s    frame=   82 fps= 17 q=31.0 size=    1519kB time=4.08 bitrate=3046.6kbits/s    frame=   93 fps= 17 q=31.0 size=    1569kB time=4.62 bitrate=2778.3kbits/s    frame=  103 fps= 17 q=31.0 size=    1616kB time=5.12 bitrate=2582.6kbits/s    frame=  113 fps= 18 q=31.0 size=    1662kB time=5.62 bitrate=2420.8kbits/s    frame=  124 fps= 18 q=31.0 size=    1723kB time=6.21 bitrate=2273.0kbits/s    frame=  132 fps= 18 q=31.0 size=    1772kB time=6.58 bitrate=2205.0kbits/s    frame=  143 fps= 18 q=24.8 size=    1830kB time=7.12 bitrate=2104.4kbits/s    frame=  154 fps= 18 q=31.0 size=    1859kB time=7.71 bitrate=1975.5kbits/s    frame=  165 fps= 18 q=31.0 size=    1913kB time=8.25 bitrate=1899.7kbits/s    frame=  171 fps= 18 q=31.0 size=    1957kB time=8.54 bitrate=1876.3kbits/s    frame=  178 fps= 18 q=31.0 size=    1973kB time=8.88 bitrate=1820.8kbits/s    frame=  187 fps= 18 q=31.0 size=    2020kB time=9.33 bitrate=1772.6kbits/s    frame=  196 fps= 18 q=31.0 size=    2067kB time=9.79 bitrate=1728.9kbits/s    frame=  205 fps= 18 q=31.0 size=    2113kB time=10.25 bitrate=1688.5kbits/s    frame=  207 fps= 17 q=31.0 Lsize=    2117kB time=10.33 bitrate=1678.4kbits/s    video:2114kB audio:0kB global headers:0kB muxing overhead 0.162712%